<svg width="50" height="46" viewBox="0 0 50 46" fill="none" xmlns="http://www.w3.org/2000/svg">
<path d="M1.8 10.25C1.8 10.05 1.9 9.25 2.1 7.85V7.3L2.15 5.75C2.15 5.25 2.2 4.91666 2.3 4.75V4.7C2.2 4.6 2.15 4.05 2.15 3.05C2.25 2.88333 2.3 2.51667 2.3 1.95C2.76667 1.71667 3.28333 1.6 3.85 1.6C4.41667 1.6 4.95 1.55 5.45 1.45C5.98333 1.31667 6.83333 1.25 8 1.25L12.45 1.5L13.05 1.6C13.7167 1.6 14.2833 1.78333 14.75 2.15C15.2167 2.48333 15.4333 2.76667 15.4 3C15.4 3.2 15.3833 3.4 15.35 3.6C15.35 3.8 15.3333 3.93333 15.3 4C15.2 4.23333 14.9167 4.38333 14.45 4.45L13.9 4.6C13.5333 4.6 13.15 4.66667 12.75 4.8C12.3833 4.8 12.0667 4.86666 11.8 5C11.5333 5.13333 11.0667 5.2 10.4 5.2L9.65 5.3C9.11667 5.46667 8.35 5.53333 7.35 5.5C7.28333 5.56667 7.15 5.63333 6.95 5.7L6.8 6.6L6.35 10.8L5.95 17.6L5.7 18.95C5.7 19.3833 5.71667 19.6333 5.75 19.7V20.6L5.6 22.4C5.63333 22.4667 5.65 22.7167 5.65 23.15C5.65 23.5833 5.61667 23.8667 5.55 24L5.45 27.8C5.45 28.7667 5.46667 29.4 5.5 29.7C5.56667 29.9667 5.6 30.2 5.6 30.4V31.55L5.7 33.45V34.2C5.76667 34.8 5.8 35.2833 5.8 35.65L6.05 38.25C6.25 39.5167 6.31667 40.3667 6.25 40.8C6.61667 40.7667 7.2 40.75 8 40.75L12.45 41L13.05 41.1C13.7167 41.1 14.2833 41.2667 14.75 41.6C15.2167 41.9667 15.4333 42.25 15.4 42.45C15.4 42.6833 15.3833 42.9 15.35 43.1C15.35 43.3 15.3333 43.4333 15.3 43.5C15.2 43.7333 14.9167 43.8833 14.45 43.95L13.9 44.1C13.5333 44.1 13.15 44.1667 12.75 44.3C12.3833 44.3 12.0667 44.3667 11.8 44.5C11.5333 44.6333 11.0667 44.7 10.4 44.7L9.65 44.8C9.11667 44.9667 8.35 45.0333 7.35 45C7.15 45.2 6.88333 45.2833 6.55 45.25C6.21667 45.2167 6 45.2333 5.9 45.3C5.6 45.5 5.01667 45.6 4.15 45.6C3.91667 45.6 3.46667 45.3667 2.8 44.9L2.3 44.2C2.2 44.1 2.15 43.55 2.15 42.55C2.25 42.3833 2.3 42.15 2.3 41.85C2.3 41.55 2.31667 41.4 2.35 41.4H2.1C1.86667 41.1333 1.68333 40.7667 1.55 40.3C1.28333 40.1667 1.18333 39.85 1.25 39.35L0.9 37.95C0.9 37.55 0.866667 37.1833 0.8 36.85L0.85 36.45C0.75 36.35 0.7 36.2 0.7 36L0.6 35.1V34.7C0.6 34.4333 0.583334 34.25 0.55 34.15C0.55 34.05 0.6 33.8833 0.7 33.65C0.6 33.5167 0.6 32.8667 0.7 31.7C0.833333 27.5667 0.9 24.9667 0.9 23.9L0.95 22.7V21.25C0.983334 20.45 1 19.4333 1 18.2C1 16.9667 1.03333 16.3 1.1 16.2V15.05L1.8 10.25ZM19.5102 36.75L18.5602 36.8C18.4935 36.7333 18.1268 36.6833 17.4602 36.65C17.3935 36.5167 17.1435 36.3667 16.7102 36.2C16.5102 36.2 16.0935 35.8833 15.4602 35.25C14.8935 34.7833 14.5935 34.5167 14.5602 34.45C14.5268 34.3167 14.4102 34.15 14.2102 33.95C14.0768 33.75 13.9268 33.2833 13.7602 32.55C13.2268 30.9167 12.9435 29.85 12.9102 29.35C12.8768 28.85 12.9102 28.15 13.0102 27.25C12.8768 27.0833 12.8935 26.6667 13.0602 26C13.0602 25.6333 13.1102 24.8 13.2102 23.5V23.2L13.4102 20.95C13.3768 20.2833 13.4768 19.6 13.7102 18.9C13.9435 18.2 14.1102 17.55 14.2102 16.95C14.3102 16.9167 14.4102 16.4833 14.5102 15.65C15.0102 14.0833 15.3102 13.2167 15.4102 13.05L16.2102 11.65C16.3102 11.55 16.4602 11.3333 16.6602 11L18.1602 9.05C18.3602 8.81666 18.7935 8.53333 19.4602 8.2C19.8268 7.83333 20.2602 7.55 20.7602 7.35C22.0268 6.81666 23.1102 6.5 24.0102 6.4C24.4102 6.7 24.9602 6.6 25.6602 6.1C27.6602 6.26666 28.9935 6.35 29.6602 6.35C30.3602 6.35 31.0435 6.46667 31.7102 6.7C32.7102 6.9 33.2268 7.28333 33.2602 7.85C33.3268 8.68333 33.2102 9.31667 32.9102 9.75C32.6102 10.1833 32.2268 10.3667 31.7602 10.3C30.3935 10.1 29.2768 10.0333 28.4102 10.1C27.5435 10.1667 26.7268 10.4167 25.9602 10.85C25.8935 10.8833 25.7435 10.95 25.5102 11.05C24.9768 11.2833 24.5435 11.5333 24.2102 11.8C22.9768 12.8333 21.8268 14.7833 20.7602 17.65L20.6102 18.5C20.6435 18.4667 20.6435 18.4833 20.6102 18.55C20.6102 18.5833 20.5768 18.6833 20.5102 18.85C20.4768 18.9833 20.4435 19.1 20.4102 19.2C20.4102 19.3 20.3602 19.4667 20.2602 19.7C19.9268 20.6 19.6268 21.8667 19.3602 23.5C19.1268 25.1 19.0102 26.4333 19.0102 27.5C19.0102 28.5667 19.1935 29.4167 19.5602 30.05L20.3602 30.95C20.4935 31.2167 20.8935 31.5333 21.5602 31.9C21.8602 32.2667 22.3102 32.6333 22.9102 33C23.4435 33.2333 24.3435 32.9833 25.6102 32.25C25.7435 32.15 25.8768 32.0333 26.0102 31.9L27.2102 31.1C27.9435 30.3333 28.3935 29.8167 28.5602 29.55L29.1602 29.05L29.3602 27.5C29.3602 27.4667 29.3935 27.3667 29.4602 27.2C29.5935 26.7 29.6602 26.2667 29.6602 25.9V25.2L29.5602 23.65C29.5935 23.1833 29.5268 22.8667 29.3602 22.7C28.8602 22.7 27.9268 23.1667 26.5602 24.1C26.4602 24.1667 26.2268 24.2 25.8602 24.2C25.5268 24.1667 25.2602 24.1 25.0602 24C24.4935 23.6667 24.2102 23.25 24.2102 22.75C24.2102 22.25 24.2602 21.85 24.3602 21.55C24.4602 21.25 24.5102 21.05 24.5102 20.95C24.5435 20.85 24.6102 20.75 24.7102 20.65C24.8435 20.5167 25.0102 20.3833 25.2102 20.25C25.4102 20.1167 25.6435 19.9167 25.9102 19.65C26.2102 19.35 26.8102 18.9833 27.7102 18.55C28.6102 18.1167 29.6268 17.9 30.7602 17.9C31.8935 17.9 32.8102 18.2333 33.5102 18.9C34.2102 19.5333 34.8102 20.7333 35.3102 22.5C35.3768 22.9 35.4102 23.7833 35.4102 25.15C35.4102 26.4833 35.0935 28.9833 34.4602 32.65C34.2935 34.25 34.0935 35.3333 33.8602 35.9C33.6602 36.4333 33.5268 36.9833 33.4602 37.55C33.3935 38.15 33.3268 38.5667 33.2602 38.8C33.2268 39.0333 33.1935 39.1833 33.1602 39.25C33.1602 39.35 33.1435 39.4333 33.1102 39.5C33.1102 39.5667 33.0602 39.75 32.9602 40.05C32.8602 40.3833 32.6102 40.7167 32.2102 41.05C31.8102 41.3833 31.4435 41.5667 31.1102 41.6C30.0102 41.4 29.2768 41.05 28.9102 40.55C28.7768 40.35 28.5935 39.9833 28.3602 39.45C28.1268 38.9167 27.9935 38.45 27.9602 38.05C27.9602 37.6833 27.9602 37.4333 27.9602 37.3C27.9935 37.1667 28.0602 36.7667 28.1602 36.1C28.2602 35.4 28.3268 34.8667 28.3602 34.5L27.0102 36.15C27.0102 36.2833 26.7102 36.5167 26.1102 36.85C25.8435 37.1167 25.0768 37.2167 23.8102 37.15H23.3602C23.3268 37.4167 22.5435 37.4 21.0102 37.1C20.8102 37.1333 20.3102 37.0167 19.5102 36.75ZM48.4367 36.1C48.4367 36.3 48.3367 37.1 48.1367 38.5V39.05L48.0867 40.6C48.0867 41.1333 48.0367 41.4667 47.9367 41.6H47.8867C48.0201 41.7333 48.0867 42.3 48.0867 43.3C47.9867 43.4333 47.9367 43.8 47.9367 44.4C47.4701 44.6333 46.9534 44.75 46.3867 44.75C45.8201 44.75 45.2701 44.8 44.7367 44.9C44.2367 45.0333 43.4034 45.1 42.2367 45.1L37.7867 44.85L37.1867 44.75C36.5201 44.75 35.9534 44.5667 35.4867 44.2C35.0201 43.8667 34.8034 43.5833 34.8367 43.35C34.8367 43.15 34.8534 42.95 34.8867 42.75C34.8867 42.55 34.9034 42.4 34.9367 42.3C35.0367 42.1 35.3201 41.9667 35.7867 41.9L36.3367 41.75C36.7034 41.75 37.0867 41.6833 37.4867 41.55C37.8534 41.55 38.1701 41.4833 38.4367 41.35C38.7034 41.2167 39.1701 41.15 39.8367 41.15L40.5867 41.05C41.1201 40.8833 41.8867 40.8167 42.8867 40.85C42.9201 40.7833 43.0367 40.7167 43.2367 40.65L43.4367 39.75L43.8867 35.55L44.2867 28.75L44.5367 27.4C44.5367 26.9667 44.5201 26.7167 44.4867 26.65V25.75L44.6367 23.95C44.6034 23.8833 44.5867 23.6333 44.5867 23.2C44.5867 22.7667 44.6201 22.4833 44.6867 22.35L44.7867 18.6C44.7867 17.6 44.7367 16.85 44.6367 16.35V14.8L44.5367 12.9V12.15C44.4701 11.55 44.4367 11.0667 44.4367 10.7L44.1867 8.1L43.9867 6.75C43.8867 6.35 43.8867 5.95 43.9867 5.55C43.6201 5.58333 43.0367 5.6 42.2367 5.6L37.7867 5.35L37.1867 5.25C36.5201 5.25 35.9534 5.08333 35.4867 4.75C35.0201 4.38333 34.8034 4.1 34.8367 3.9C34.8367 3.66666 34.8534 3.45 34.8867 3.25C34.8867 3.05 34.9034 2.9 34.9367 2.8C35.0367 2.6 35.3201 2.46666 35.7867 2.4L36.3367 2.25C36.7034 2.25 37.0867 2.18333 37.4867 2.05C37.8534 2.05 38.1701 1.98333 38.4367 1.85C38.7034 1.71667 39.1701 1.65 39.8367 1.65L40.5867 1.55C41.1201 1.38333 41.8867 1.31666 42.8867 1.35C43.0867 1.15 43.3534 1.06666 43.6867 1.1C44.0201 1.13333 44.2367 1.11667 44.3367 1.05C44.6367 0.849999 45.2201 0.749999 46.0867 0.749999C46.3201 0.749999 46.7701 0.983332 47.4367 1.45L47.9367 2.15C48.0367 2.25 48.0867 2.8 48.0867 3.8C47.9867 3.93333 47.9367 4.3 47.9367 4.9L47.8867 4.95H48.1367C48.3701 5.21667 48.5534 5.58333 48.6867 6.05C48.9534 6.18333 49.0534 6.5 48.9867 7L49.3367 8.4C49.3367 8.8 49.3701 9.16667 49.4367 9.5L49.3867 9.9C49.4867 10 49.5367 10.15 49.5367 10.35L49.6367 11.25V11.65C49.6367 11.9167 49.6367 12.1 49.6367 12.2C49.6701 12.3 49.6367 12.4667 49.5367 12.7C49.6367 12.8333 49.6367 13.4833 49.5367 14.65C49.4034 18.7833 49.3367 21.3833 49.3367 22.45L49.2867 23.65V25.1C49.2534 25.9 49.2367 26.9167 49.2367 28.15C49.2367 29.3833 49.2034 30.05 49.1367 30.15V31.3L48.4367 36.1Z" fill="#171C1C"/>
</svg>
